<svg width="319" height="97" viewBox="0 0 319 97" fill="none" xmlns="http://www.w3.org/2000/svg">
<path fill-rule="evenodd" clip-rule="evenodd" d="M245.609 40.0001H262.74C264.768 40.0001 266.411 38.3565 266.411 36.329V30.2106C266.411 29.5347 265.863 28.9869 265.188 28.9869H261.516V19.1974C261.516 17.17 259.873 15.5264 257.845 15.5264H245.609C243.581 15.5264 241.938 17.17 241.938 19.1974V36.329C241.938 38.3565 243.581 40.0001 245.609 40.0001ZM262.74 37.5527C262.064 37.5527 261.516 37.0049 261.516 36.329V31.4343H263.964V36.329C263.964 37.0049 263.416 37.5527 262.74 37.5527ZM246.832 21.6448C246.156 21.6448 245.609 22.1927 245.609 22.8685C245.609 23.5443 246.156 24.0922 246.832 24.0922H250.503C251.179 24.0922 251.727 23.5443 251.727 22.8685C251.727 22.1927 251.179 21.6448 250.503 21.6448H246.832ZM245.609 27.7632C245.609 27.0873 246.156 26.5395 246.832 26.5395H256.622C257.298 26.5395 257.845 27.0873 257.845 27.7632C257.845 28.4391 257.298 28.9869 256.622 28.9869H246.832C246.156 28.9869 245.609 28.4391 245.609 27.7632ZM246.832 31.4343C246.156 31.4343 245.609 31.9821 245.609 32.6579C245.609 33.3338 246.156 33.8816 246.832 33.8816H256.622C257.298 33.8816 257.845 33.3338 257.845 32.6579C257.845 31.9821 257.298 31.4343 256.622 31.4343H246.832Z" fill="#3A3A3A"/>
<path d="M264.831 53.4209H97.4623C93.9742 53.4209 91.1465 56.2486 91.1465 59.7367V78.6841C91.1465 82.1722 93.9742 84.9998 97.4623 84.9998H264.831C268.319 84.9998 271.146 82.1722 271.146 78.6841V59.7367C271.146 56.2486 268.319 53.4209 264.831 53.4209Z" fill="white"/>
<path d="M108.756 73.3095C110.247 73.3095 111.258 72.6022 111.965 71.6422L111.068 71.1495C110.588 71.8695 109.716 72.3748 108.756 72.3748C106.912 72.3748 105.51 70.9474 105.51 68.9516C105.51 66.9432 106.912 65.5285 108.756 65.5285C109.716 65.5285 110.588 66.0464 111.068 66.7538L111.952 66.2611C111.283 65.3137 110.247 64.5938 108.756 64.5938C106.331 64.5938 104.424 66.3622 104.424 68.9516C104.424 71.5411 106.331 73.3095 108.756 73.3095ZM118.632 73.158L115.916 69.8232L118.619 67.0569H117.419L114.211 70.3032V67.0569H113.263V73.158H114.211V71.4148L115.221 70.4169L117.419 73.158H118.632ZM124.514 73.158V68.9643C124.514 67.4864 123.44 66.9053 122.151 66.9053C121.154 66.9053 120.37 67.2338 119.714 67.9159L120.156 68.5727C120.699 67.9916 121.293 67.7264 122.025 67.7264C122.909 67.7264 123.566 68.1937 123.566 69.0148V70.1137C123.074 69.5453 122.379 69.2801 121.545 69.2801C120.509 69.2801 119.41 69.9243 119.41 71.2885C119.41 72.6148 120.509 73.3095 121.545 73.3095C122.366 73.3095 123.061 73.019 123.566 72.4632V73.158H124.514ZM121.886 72.6274C121.002 72.6274 120.383 72.0716 120.383 71.3011C120.383 70.518 121.002 69.9622 121.886 69.9622C122.556 69.9622 123.2 70.2148 123.566 70.7201V71.8695C123.2 72.3748 122.556 72.6274 121.886 72.6274ZM126.287 67.0569V69.0653C126.287 70.4548 126.956 71.0738 128.548 71.0738C129.243 71.0738 129.95 70.8969 130.405 70.6695V73.158H131.352V67.0569H130.405V69.899C130.038 70.0885 129.419 70.2274 128.788 70.2274C127.777 70.2274 127.234 69.9116 127.234 68.7748V67.0569H126.287ZM138.009 73.158V68.9643C138.009 67.4864 136.935 66.9053 135.647 66.9053C134.649 66.9053 133.866 67.2338 133.209 67.9159L133.651 68.5727C134.194 67.9916 134.788 67.7264 135.52 67.7264C136.405 67.7264 137.061 68.1937 137.061 69.0148V70.1137C136.569 69.5453 135.874 69.2801 135.04 69.2801C134.005 69.2801 132.906 69.9243 132.906 71.2885C132.906 72.6148 134.005 73.3095 135.04 73.3095C135.861 73.3095 136.556 73.019 137.061 72.4632V73.158H138.009ZM135.381 72.6274C134.497 72.6274 133.878 72.0716 133.878 71.3011C133.878 70.518 134.497 69.9622 135.381 69.9622C136.051 69.9622 136.695 70.2148 137.061 70.7201V71.8695C136.695 72.3748 136.051 72.6274 135.381 72.6274ZM141.967 73.158V67.8906H143.748V67.0569H139.251V67.8906H141.02V73.158H141.967ZM144.99 67.0569V73.158H148.224C149.474 73.158 150.144 72.299 150.144 71.2885C150.144 70.2906 149.487 69.419 148.224 69.419H145.938V67.0569H144.99ZM148.123 70.2527C148.818 70.2527 149.171 70.6948 149.171 71.2885C149.171 71.8948 148.805 72.3243 148.123 72.3243H145.938V70.2527H148.123ZM158.269 73.158C159.393 73.158 160.05 72.4885 160.05 71.5032C160.05 70.8085 159.558 70.1643 158.939 70.0127C159.456 69.8485 159.924 69.3559 159.924 68.6232C159.924 67.7011 159.28 67.0569 158.206 67.0569H154.846V73.158H158.269ZM158.08 72.3243H155.793V70.4422H158.08C158.724 70.4422 159.065 70.8969 159.065 71.3895C159.065 71.9706 158.686 72.3243 158.08 72.3243ZM158.042 69.6085H155.793V67.8906H158.042C158.623 67.8906 158.951 68.2316 158.951 68.7622C158.951 69.2422 158.635 69.6085 158.042 69.6085ZM167.055 66.9053C165.767 66.9053 164.857 68.1432 164.857 70.1137C164.857 72.0969 165.767 73.3095 167.055 73.3095C167.75 73.3095 168.369 72.8674 168.723 72.2485V75.4822H169.67V72.2359C170.061 72.918 170.655 73.3095 171.325 73.3095C172.613 73.3095 173.523 72.0716 173.523 70.1011C173.523 68.118 172.613 66.9053 171.325 66.9053C170.63 66.9053 170.024 67.3474 169.67 67.9664V64.7327H168.723V67.979C168.318 67.2969 167.725 66.9053 167.055 66.9053ZM167.32 67.7516C167.901 67.7516 168.47 68.2064 168.723 68.7369V71.4906C168.47 72.0211 167.901 72.4632 167.32 72.4632C166.373 72.4632 165.817 71.4653 165.817 70.1137C165.817 68.7622 166.373 67.7516 167.32 67.7516ZM171.059 72.4632C170.491 72.4632 169.923 72.0085 169.67 71.478V68.7243C169.923 68.1938 170.491 67.7516 171.059 67.7516C172.007 67.7516 172.563 68.7495 172.563 70.1011C172.563 71.4527 172.007 72.4632 171.059 72.4632ZM177.84 73.3095C179.697 73.3095 180.859 71.8695 180.859 70.1011C180.859 68.3327 179.697 66.9053 177.84 66.9053C175.983 66.9053 174.821 68.3327 174.821 70.1011C174.821 71.8695 175.983 73.3095 177.84 73.3095ZM177.84 72.4632C176.539 72.4632 175.806 71.3516 175.806 70.1011C175.806 68.8632 176.539 67.7516 177.84 67.7516C179.141 67.7516 179.861 68.8632 179.861 70.1011C179.861 71.3516 179.141 72.4632 177.84 72.4632ZM185.41 73.3095C187.015 73.3095 188.126 72.0716 188.126 70.1011C188.126 68.118 187.015 66.9053 185.41 66.9053C184.551 66.9053 183.794 67.3474 183.351 67.9664V67.0569H182.404V75.4822H183.351V72.2359C183.844 72.918 184.577 73.3095 185.41 73.3095ZM185.17 72.4632C184.425 72.4632 183.68 72.0085 183.351 71.478V68.7243C183.68 68.1938 184.425 67.7516 185.17 67.7516C186.396 67.7516 187.128 68.7495 187.128 70.1011C187.128 71.4527 186.396 72.4632 185.17 72.4632ZM195.86 73.158V67.0569H194.597L192.753 71.579L190.883 67.0569H189.633V73.158H190.58V68.3706L192.576 73.158H192.929L194.913 68.3706V73.158H195.86ZM202.511 73.158V68.9643C202.511 67.4864 201.438 66.9053 200.149 66.9053C199.151 66.9053 198.368 67.2338 197.711 67.9159L198.153 68.5727C198.696 67.9916 199.29 67.7264 200.023 67.7264C200.907 67.7264 201.564 68.1937 201.564 69.0148V70.1137C201.071 69.5453 200.376 69.2801 199.543 69.2801C198.507 69.2801 197.408 69.9243 197.408 71.2885C197.408 72.6148 198.507 73.3095 199.543 73.3095C200.364 73.3095 201.059 73.019 201.564 72.4632V73.158H202.511ZM199.884 72.6274C199 72.6274 198.381 72.0716 198.381 71.3011C198.381 70.518 199 69.9622 199.884 69.9622C200.553 69.9622 201.198 70.2148 201.564 70.7201V71.8695C201.198 72.3748 200.553 72.6274 199.884 72.6274ZM206.47 73.158V67.8906H208.251V67.0569H203.754V67.8906H205.522V73.158H206.47ZM212.246 73.3095C213.244 73.3095 214.065 72.9811 214.671 72.3748L214.217 71.7559C213.737 72.2485 213.029 72.5264 212.335 72.5264C211.021 72.5264 210.213 71.5664 210.137 70.4169H215.076V70.1769C215.076 68.3453 213.989 66.9053 212.145 66.9053C210.402 66.9053 209.139 68.3327 209.139 70.1011C209.139 72.0085 210.44 73.3095 212.246 73.3095ZM214.141 69.7222H210.137C210.187 68.7874 210.831 67.6885 212.133 67.6885C213.522 67.6885 214.128 68.8127 214.141 69.7222ZM220.953 73.158V69.8106H223.29C224.958 69.8106 225.93 68.6485 225.93 67.2716C225.93 65.8948 224.983 64.7327 223.29 64.7327H219.905V73.158H220.953ZM223.164 68.8759H220.953V65.6674H223.164C224.162 65.6674 224.844 66.3243 224.844 67.2716C224.844 68.219 224.162 68.8759 223.164 68.8759ZM230.198 73.158C232.813 73.158 234.518 71.3516 234.518 68.9516C234.518 66.5643 232.813 64.7327 230.198 64.7327H227.318V73.158H230.198ZM230.198 72.2232H228.366V65.6674H230.198C232.282 65.6674 233.432 67.1327 233.432 68.9516C233.432 70.758 232.244 72.2232 230.198 72.2232ZM237.212 73.158V69.318H241.595V68.3832H237.212V65.6674H241.683V64.7327H236.163V73.158H237.212Z" fill="#212121"/>
<path d="M257.909 70.8508C258.225 71.2296 258.806 71.2296 259.122 70.8508L261.384 68.1367C261.813 67.6225 261.447 66.8418 260.778 66.8418H256.254C255.584 66.8418 255.219 67.6225 255.648 68.1367L257.909 70.8508Z" fill="#212121"/>
<path d="M206.411 10H46.1478C42.6597 10 39.832 12.8277 39.832 16.3158V38.4211C39.832 41.9092 42.6597 44.7368 46.1478 44.7368H206.411C209.899 44.7368 212.727 41.9092 212.727 38.4211V16.3158C212.727 12.8277 209.899 10 206.411 10Z" fill="white"/>
<path d="M56.2311 31.4673C55.6248 31.4673 55.0563 31.362 54.5258 31.1515C54.0036 30.9409 53.5447 30.6462 53.149 30.2673C52.7616 29.8799 52.4542 29.4209 52.2269 28.8904C52.0079 28.3514 51.8984 27.7578 51.8984 27.1094C51.8984 26.461 52.0079 25.8715 52.2269 25.3409C52.4542 24.802 52.7616 24.343 53.149 23.9641C53.5447 23.5767 54.0036 23.2778 54.5258 23.0673C55.0563 22.8567 55.6248 22.7515 56.2311 22.7515C56.6016 22.7515 56.9426 22.7935 57.2542 22.8778C57.5742 22.962 57.8647 23.0799 58.1258 23.2315C58.3953 23.383 58.6353 23.5599 58.8458 23.762C59.0647 23.9641 59.2584 24.183 59.4269 24.4188L58.5426 24.9115C58.2984 24.5578 57.97 24.2673 57.5574 24.0399C57.1532 23.8041 56.7111 23.6862 56.2311 23.6862C55.7679 23.6862 55.3384 23.7704 54.9426 23.9388C54.5468 24.1072 54.2016 24.343 53.9069 24.6462C53.6205 24.9494 53.3931 25.3115 53.2248 25.7325C53.0647 26.1452 52.9848 26.6041 52.9848 27.1094C52.9848 27.6062 53.0647 28.0652 53.2248 28.4862C53.3931 28.9072 53.6205 29.2694 53.9069 29.5725C54.2016 29.8757 54.5468 30.1115 54.9426 30.2799C55.3384 30.4483 55.7679 30.5325 56.2311 30.5325C56.7111 30.5325 57.1532 30.4188 57.5574 30.1915C57.97 29.9641 58.2984 29.6694 58.5426 29.3073L59.4395 29.7999C59.0858 30.2799 58.6479 30.6799 58.1258 30.9999C57.6121 31.3115 56.9805 31.4673 56.2311 31.4673ZM63.403 31.4673C62.9399 31.4673 62.5188 31.383 62.1399 31.2146C61.7693 31.0462 61.4535 30.8189 61.1925 30.5325C60.9314 30.2378 60.7293 29.8968 60.5862 29.5094C60.4514 29.122 60.3841 28.7051 60.3841 28.2588C60.3841 27.8209 60.4514 27.4083 60.5862 27.0209C60.7293 26.6252 60.9314 26.2841 61.1925 25.9978C61.4535 25.7114 61.7693 25.4841 62.1399 25.3157C62.5188 25.1473 62.9399 25.063 63.403 25.063C63.8661 25.063 64.283 25.1473 64.6536 25.3157C65.0325 25.4841 65.3525 25.7114 65.6136 25.9978C65.8746 26.2841 66.0725 26.6252 66.2073 27.0209C66.3504 27.4083 66.422 27.8209 66.422 28.2588C66.422 28.7051 66.3504 29.122 66.2073 29.5094C66.0725 29.8968 65.8746 30.2378 65.6136 30.5325C65.3525 30.8189 65.0325 31.0462 64.6536 31.2146C64.283 31.383 63.8661 31.4673 63.403 31.4673ZM63.403 30.6209C63.7315 30.6209 64.0177 30.5578 64.262 30.4315C64.5146 30.2967 64.7251 30.1241 64.8936 29.9136C65.0704 29.6946 65.2009 29.442 65.2851 29.1557C65.3778 28.8693 65.4241 28.5704 65.4241 28.2588C65.4241 27.9472 65.3778 27.6525 65.2851 27.3746C65.2009 27.0883 65.0704 26.8399 64.8936 26.6294C64.7251 26.4104 64.5146 26.2378 64.262 26.1115C64.0177 25.9767 63.7315 25.9094 63.403 25.9094C63.0746 25.9094 62.7841 25.9767 62.5315 26.1115C62.2788 26.2378 62.0641 26.4104 61.8873 26.6294C61.7188 26.8399 61.5883 27.0883 61.4957 27.3746C61.4114 27.6525 61.3693 27.9472 61.3693 28.2588C61.3693 28.5704 61.4114 28.8693 61.4957 29.1557C61.5883 29.442 61.7188 29.6946 61.8873 29.9136C62.0641 30.1241 62.2788 30.2967 62.5315 30.4315C62.7841 30.5578 63.0746 30.6209 63.403 30.6209ZM70.1264 31.4673C69.5116 31.4673 68.9727 31.3788 68.5095 31.202C68.0548 31.0167 67.6758 30.7725 67.3727 30.4694L67.84 29.863C68.1264 30.1325 68.4632 30.3389 68.8506 30.482C69.2463 30.6168 69.6716 30.6841 70.1264 30.6841C70.6737 30.6841 71.1074 30.5872 71.4274 30.3936C71.7558 30.1999 71.92 29.943 71.92 29.623C71.92 29.4378 71.8695 29.282 71.7685 29.1557C71.6674 29.0209 71.5285 28.9157 71.3516 28.8399C71.1832 28.7556 70.9811 28.6968 70.7453 28.663C70.5179 28.6293 70.2695 28.6125 70 28.6125H68.6358V27.842H70C70.2527 27.842 70.4885 27.8209 70.7074 27.7788C70.9263 27.7368 71.1158 27.6736 71.2758 27.5894C71.4442 27.5051 71.5748 27.3999 71.6674 27.2736C71.76 27.1473 71.8064 26.9957 71.8064 26.8188C71.8064 26.6757 71.76 26.5451 71.6674 26.4273C71.5748 26.3009 71.4485 26.1957 71.2885 26.1115C71.1369 26.0272 70.9516 25.9641 70.7327 25.922C70.5138 25.8715 70.2779 25.8462 70.0253 25.8462C69.1748 25.8462 68.4927 26.1073 67.979 26.6294L67.4864 26.0483C67.7727 25.7536 68.1221 25.5178 68.5348 25.3409C68.9474 25.1641 69.4316 25.0757 69.9874 25.0757C70.4001 25.0757 70.7748 25.1136 71.1116 25.1894C71.4569 25.2567 71.7516 25.362 71.9958 25.5051C72.2485 25.6399 72.4421 25.8083 72.5769 26.0104C72.72 26.2125 72.7916 26.4441 72.7916 26.7051C72.7916 26.9325 72.7369 27.1346 72.6274 27.3115C72.5264 27.4883 72.3959 27.6399 72.2358 27.7662C72.0758 27.8841 71.899 27.9809 71.7053 28.0567C71.5117 28.1241 71.3264 28.1704 71.1495 28.1957C71.3264 28.2125 71.5158 28.2504 71.7179 28.3094C71.9285 28.3683 72.1221 28.4609 72.299 28.5873C72.4758 28.7051 72.6232 28.8567 72.7411 29.042C72.859 29.2188 72.9179 29.4336 72.9179 29.6862C72.9179 29.9388 72.8548 30.1746 72.7285 30.3936C72.6021 30.6125 72.4169 30.802 72.1727 30.962C71.9369 31.122 71.6463 31.2441 71.3011 31.3283C70.9559 31.4209 70.5643 31.4673 70.1264 31.4673ZM73.7349 30.5325C73.878 30.5073 74.0043 30.4567 74.1138 30.3809C74.2317 30.3051 74.3369 30.183 74.4296 30.0146C74.5307 29.8462 74.6191 29.6189 74.6949 29.3325C74.7707 29.0462 74.838 28.6757 74.897 28.2209L75.2886 25.2146H79.5328V30.482H80.2401V32.8694H79.2928V31.3157H74.6823V32.8694H73.7349V30.5325ZM75.8444 28.3346C75.7686 28.9157 75.6549 29.3746 75.5033 29.7115C75.3601 30.0483 75.1791 30.3051 74.9601 30.482H78.5854V26.0483H76.1223L75.8444 28.3346ZM85.3502 31.3157V30.6209C84.8365 31.1852 84.1628 31.4673 83.3291 31.4673C83.068 31.4673 82.8112 31.4252 82.5586 31.3409C82.306 31.2567 82.0786 31.1304 81.8765 30.962C81.6744 30.7851 81.5102 30.5704 81.3839 30.3178C81.2575 30.0651 81.1944 29.7746 81.1944 29.4462C81.1944 29.1093 81.2575 28.8146 81.3839 28.562C81.5102 28.3094 81.6744 28.0988 81.8765 27.9304C82.0786 27.762 82.306 27.6399 82.5586 27.5641C82.8112 27.4799 83.068 27.4378 83.3291 27.4378C83.7502 27.4378 84.1291 27.5051 84.466 27.6399C84.8112 27.7746 85.106 27.9851 85.3502 28.2715V27.1725C85.3502 26.7599 85.2028 26.4441 84.9081 26.2251C84.6217 25.9978 84.2554 25.8841 83.8091 25.8841C83.0933 25.8841 82.4702 26.1662 81.9396 26.7304L81.4975 26.0736C82.1459 25.3999 82.9586 25.063 83.9354 25.063C84.2554 25.063 84.5586 25.1009 84.8449 25.1767C85.1313 25.2525 85.3796 25.3746 85.5902 25.543C85.8091 25.7031 85.9818 25.9135 86.1081 26.1746C86.2344 26.4357 86.2975 26.7515 86.2975 27.122V31.3157H85.3502ZM83.6702 30.7851C84.007 30.7851 84.3228 30.722 84.6175 30.5957C84.9207 30.4694 85.1649 30.2799 85.3502 30.0273V28.8778C85.1649 28.6251 84.9207 28.4357 84.6175 28.3094C84.3228 28.183 84.007 28.1199 83.6702 28.1199C83.2239 28.1199 82.8618 28.2462 82.5839 28.4988C82.306 28.743 82.167 29.0631 82.167 29.4588C82.167 29.8462 82.306 30.1662 82.5839 30.4188C82.8618 30.663 83.2239 30.7851 83.6702 30.7851ZM89.3082 31.3157V26.0483H87.5398V25.2146H92.0366V26.0483H90.2556V31.3157H89.3082ZM94.2262 25.2146V27.5767H96.5125C96.8242 27.5767 97.0978 27.6273 97.3336 27.7283C97.5778 27.8294 97.7799 27.9683 97.9399 28.1451C98.1083 28.3135 98.2304 28.5115 98.3062 28.7388C98.3905 28.9578 98.4325 29.1936 98.4325 29.4462C98.4325 29.6988 98.3905 29.9388 98.3062 30.1662C98.222 30.3936 98.0999 30.5915 97.9399 30.7599C97.7799 30.9283 97.5778 31.063 97.3336 31.1641C97.0978 31.2651 96.8242 31.3157 96.5125 31.3157H93.2789V25.2146H94.2262ZM94.2262 28.4104V30.482H96.4115C96.7567 30.482 97.0178 30.3851 97.1947 30.1915C97.3715 29.9978 97.4599 29.7494 97.4599 29.4462C97.4599 29.1515 97.3715 28.9072 97.1947 28.7136C97.0263 28.5115 96.7652 28.4104 96.4115 28.4104H94.2262ZM106.95 31.3157V30.6209C106.436 31.1852 105.762 31.4673 104.929 31.4673C104.668 31.4673 104.411 31.4252 104.158 31.3409C103.905 31.2567 103.678 31.1304 103.476 30.962C103.274 30.7851 103.11 30.5704 102.983 30.3178C102.857 30.0651 102.794 29.7746 102.794 29.4462C102.794 29.1093 102.857 28.8146 102.983 28.562C103.11 28.3094 103.274 28.0988 103.476 27.9304C103.678 27.762 103.905 27.6399 104.158 27.5641C104.411 27.4799 104.668 27.4378 104.929 27.4378C105.35 27.4378 105.729 27.5051 106.065 27.6399C106.411 27.7746 106.705 27.9851 106.95 28.2715V27.1725C106.95 26.7599 106.802 26.4441 106.508 26.2251C106.221 25.9978 105.855 25.8841 105.409 25.8841C104.693 25.8841 104.07 26.1662 103.539 26.7304L103.097 26.0736C103.745 25.3999 104.558 25.063 105.535 25.063C105.855 25.063 106.158 25.1009 106.444 25.1767C106.731 25.2525 106.979 25.3746 107.19 25.543C107.409 25.7031 107.581 25.9135 107.708 26.1746C107.834 26.4357 107.897 26.7515 107.897 27.122V31.3157H106.95ZM105.27 30.7851C105.606 30.7851 105.922 30.722 106.217 30.5957C106.52 30.4694 106.764 30.2799 106.95 30.0273V28.8778C106.764 28.6251 106.52 28.4357 106.217 28.3094C105.922 28.183 105.606 28.1199 105.27 28.1199C104.823 28.1199 104.461 28.2462 104.183 28.4988C103.905 28.743 103.767 29.0631 103.767 29.4588C103.767 29.8462 103.905 30.1662 104.183 30.4188C104.461 30.663 104.823 30.7851 105.27 30.7851ZM109.796 31.3157V25.2146H113.156C113.695 25.2146 114.116 25.362 114.419 25.6567C114.722 25.9431 114.874 26.3178 114.874 26.7809C114.874 27.1514 114.773 27.4546 114.571 27.6904C114.377 27.9262 114.15 28.0862 113.889 28.1704C114.04 28.2125 114.183 28.2799 114.318 28.3725C114.453 28.4651 114.571 28.5788 114.672 28.7136C114.773 28.8483 114.853 28.9956 114.912 29.1557C114.971 29.3157 115 29.4841 115 29.6609C115 30.1578 114.845 30.5578 114.533 30.8609C114.221 31.1641 113.783 31.3157 113.219 31.3157H109.796ZM113.03 30.482C113.333 30.482 113.573 30.402 113.75 30.242C113.927 30.0736 114.015 29.842 114.015 29.5473C114.015 29.3031 113.931 29.0841 113.762 28.8904C113.594 28.6968 113.35 28.5999 113.03 28.5999H110.744V30.482H113.03ZM112.992 27.7662C113.287 27.7662 113.51 27.6862 113.661 27.5262C113.821 27.3662 113.901 27.1641 113.901 26.9199C113.901 26.6504 113.821 26.4399 113.661 26.2883C113.51 26.1283 113.287 26.0483 112.992 26.0483H110.744V27.7662H112.992ZM120.605 31.3157V30.6209C120.092 31.1852 119.418 31.4673 118.584 31.4673C118.323 31.4673 118.066 31.4252 117.814 31.3409C117.561 31.2567 117.334 31.1304 117.131 30.962C116.929 30.7851 116.765 30.5704 116.639 30.3178C116.513 30.0651 116.449 29.7746 116.449 29.4462C116.449 29.1093 116.513 28.8146 116.639 28.562C116.765 28.3094 116.929 28.0988 117.131 27.9304C117.334 27.762 117.561 27.6399 117.814 27.5641C118.066 27.4799 118.323 27.4378 118.584 27.4378C119.005 27.4378 119.384 27.5051 119.721 27.6399C120.066 27.7746 120.361 27.9851 120.605 28.2715V27.1725C120.605 26.7599 120.458 26.4441 120.163 26.2251C119.877 25.9978 119.511 25.8841 119.064 25.8841C118.348 25.8841 117.725 26.1662 117.195 26.7304L116.753 26.0736C117.401 25.3999 118.214 25.063 119.19 25.063C119.511 25.063 119.814 25.1009 120.1 25.1767C120.386 25.2525 120.635 25.3746 120.845 25.543C121.064 25.7031 121.236 25.9135 121.363 26.1746C121.489 26.4357 121.552 26.7515 121.552 27.122V31.3157H120.605ZM118.925 30.7851C119.262 30.7851 119.578 30.722 119.872 30.5957C120.175 30.4694 120.42 30.2799 120.605 30.0273V28.8778C120.42 28.6251 120.175 28.4357 119.872 28.3094C119.578 28.183 119.262 28.1199 118.925 28.1199C118.479 28.1199 118.117 28.2462 117.839 28.4988C117.561 28.743 117.422 29.0631 117.422 29.4588C117.422 29.8462 117.561 30.1662 117.839 30.4188C118.117 30.663 118.479 30.7851 118.925 30.7851ZM123.452 31.3157V25.2146H124.399V27.7536H127.582V25.2146H128.53V31.3157H127.582V28.5873H124.399V31.3157H123.452ZM133.112 31.4673C132.657 31.4673 132.24 31.3873 131.861 31.2273C131.491 31.0589 131.17 30.8315 130.901 30.5451C130.64 30.2588 130.434 29.922 130.282 29.5346C130.139 29.1389 130.068 28.7136 130.068 28.2588C130.068 27.8041 130.139 27.3831 130.282 26.9957C130.434 26.6083 130.64 26.2715 130.901 25.9851C131.17 25.6988 131.491 25.4757 131.861 25.3157C132.24 25.1473 132.657 25.063 133.112 25.063C133.668 25.063 134.118 25.1641 134.463 25.3662C134.817 25.5683 135.111 25.8209 135.348 26.1241L134.716 26.7051C134.514 26.4273 134.283 26.2251 134.021 26.0988C133.769 25.9725 133.482 25.9094 133.162 25.9094C132.834 25.9094 132.539 25.9683 132.278 26.0862C132.025 26.2041 131.807 26.3683 131.621 26.5788C131.436 26.7894 131.293 27.0378 131.192 27.3241C131.099 27.6104 131.053 27.922 131.053 28.2588C131.053 28.5957 131.099 28.9115 131.192 29.2062C131.293 29.4925 131.436 29.7409 131.621 29.9515C131.807 30.162 132.025 30.3262 132.278 30.4441C132.539 30.562 132.834 30.6209 133.162 30.6209C133.803 30.6209 134.32 30.3557 134.716 29.8251L135.348 30.4062C135.111 30.7094 134.817 30.962 134.463 31.1641C134.118 31.3662 133.668 31.4673 133.112 31.4673ZM139.341 31.4673C138.877 31.4673 138.456 31.383 138.078 31.2146C137.706 31.0462 137.391 30.8189 137.13 30.5325C136.869 30.2378 136.667 29.8968 136.524 29.5094C136.389 29.122 136.322 28.7051 136.322 28.2588C136.322 27.8209 136.389 27.4083 136.524 27.0209C136.667 26.6252 136.869 26.2841 137.13 25.9978C137.391 25.7114 137.706 25.4841 138.078 25.3157C138.456 25.1473 138.877 25.063 139.341 25.063C139.803 25.063 140.22 25.1473 140.591 25.3157C140.97 25.4841 141.29 25.7114 141.551 25.9978C141.812 26.2841 142.01 26.6252 142.145 27.0209C142.288 27.4083 142.36 27.8209 142.36 28.2588C142.36 28.7051 142.288 29.122 142.145 29.5094C142.01 29.8968 141.812 30.2378 141.551 30.5325C141.29 30.8189 140.97 31.0462 140.591 31.2146C140.22 31.383 139.803 31.4673 139.341 31.4673ZM139.341 30.6209C139.669 30.6209 139.955 30.5578 140.2 30.4315C140.452 30.2967 140.662 30.1241 140.831 29.9136C141.008 29.6946 141.138 29.442 141.223 29.1557C141.315 28.8693 141.362 28.5704 141.362 28.2588C141.362 27.9472 141.315 27.6525 141.223 27.3746C141.138 27.0883 141.008 26.8399 140.831 26.6294C140.662 26.4104 140.452 26.2378 140.2 26.1115C139.955 25.9767 139.669 25.9094 139.341 25.9094C139.012 25.9094 138.722 25.9767 138.469 26.1115C138.216 26.2378 138.002 26.4104 137.825 26.6294C137.656 26.8399 137.526 27.0883 137.433 27.3746C137.349 27.6525 137.307 27.9472 137.307 28.2588C137.307 28.5704 137.349 28.8693 137.433 29.1557C137.526 29.442 137.656 29.6946 137.825 29.9136C138.002 30.1241 138.216 30.2967 138.469 30.4315C138.722 30.5578 139.012 30.6209 139.341 30.6209ZM143.904 31.3157V25.2146H147.264C147.803 25.2146 148.224 25.362 148.527 25.6567C148.83 25.9431 148.982 26.3178 148.982 26.7809C148.982 27.1514 148.881 27.4546 148.679 27.6904C148.485 27.9262 148.258 28.0862 147.996 28.1704C148.148 28.2125 148.291 28.2799 148.426 28.3725C148.561 28.4651 148.679 28.5788 148.78 28.7136C148.881 28.8483 148.96 28.9956 149.02 29.1557C149.079 29.3157 149.108 29.4841 149.108 29.6609C149.108 30.1578 148.953 30.5578 148.641 30.8609C148.329 31.1641 147.891 31.3157 147.327 31.3157H143.904ZM147.138 30.482C147.441 30.482 147.681 30.402 147.858 30.242C148.034 30.0736 148.123 29.842 148.123 29.5473C148.123 29.3031 148.038 29.0841 147.87 28.8904C147.702 28.6968 147.457 28.5999 147.138 28.5999H144.851V30.482H147.138ZM147.1 27.7662C147.394 27.7662 147.618 27.6862 147.769 27.5262C147.929 27.3662 148.009 27.1641 148.009 26.9199C148.009 26.6504 147.929 26.4399 147.769 26.2883C147.618 26.1283 147.394 26.0483 147.1 26.0483H144.851V27.7662H147.1ZM151.845 25.2146V27.5767H154.131C154.443 27.5767 154.717 27.6273 154.953 27.7283C155.197 27.8294 155.399 27.9683 155.559 28.1451C155.728 28.3135 155.849 28.5115 155.925 28.7388C156.01 28.9578 156.051 29.1936 156.051 29.4462C156.051 29.6988 156.01 29.9388 155.925 30.1662C155.841 30.3936 155.719 30.5915 155.559 30.7599C155.399 30.9283 155.197 31.063 154.953 31.1641C154.717 31.2651 154.443 31.3157 154.131 31.3157H150.898V25.2146H151.845ZM151.845 28.4104V30.482H154.03C154.376 30.482 154.637 30.3851 154.814 30.1915C154.99 29.9978 155.079 29.7494 155.079 29.4462C155.079 29.1515 154.99 28.9072 154.814 28.7136C154.645 28.5115 154.384 28.4104 154.03 28.4104H151.845ZM157.049 31.3157V25.2146H157.997V31.3157H157.049ZM159.891 31.3157V25.2146H160.838V29.8757L164.034 25.2146H164.969V31.3157H164.021V26.5662L160.8 31.3157H159.891ZM164.64 23.4083C164.388 23.7535 164.068 24.0273 163.68 24.2294C163.301 24.423 162.884 24.5199 162.43 24.5199C161.975 24.5199 161.554 24.423 161.166 24.2294C160.788 24.0273 160.468 23.7535 160.206 23.4083L160.674 23.0041C160.876 23.282 161.125 23.5052 161.419 23.6736C161.714 23.8336 162.051 23.9136 162.43 23.9136C162.8 23.9136 163.133 23.8336 163.428 23.6736C163.731 23.5135 163.979 23.2904 164.173 23.0041L164.64 23.4083ZM172.782 31.4673C172.319 31.4673 171.898 31.383 171.519 31.2146C171.149 31.0462 170.833 30.8189 170.571 30.5325C170.31 30.2378 170.108 29.8968 169.965 29.5094C169.83 29.122 169.763 28.7051 169.763 28.2588C169.763 27.8209 169.83 27.4083 169.965 27.0209C170.108 26.6252 170.31 26.2841 170.571 25.9978C170.833 25.7114 171.149 25.4841 171.519 25.3157C171.898 25.1473 172.319 25.063 172.782 25.063C173.245 25.063 173.662 25.1473 174.033 25.3157C174.411 25.4841 174.731 25.7114 174.993 25.9978C175.254 26.2841 175.451 26.6252 175.586 27.0209C175.729 27.4083 175.801 27.8209 175.801 28.2588C175.801 28.7051 175.729 29.122 175.586 29.5094C175.451 29.8968 175.254 30.2378 174.993 30.5325C174.731 30.8189 174.411 31.0462 174.033 31.2146C173.662 31.383 173.245 31.4673 172.782 31.4673ZM172.782 30.6209C173.11 30.6209 173.397 30.5578 173.641 30.4315C173.894 30.2967 174.104 30.1241 174.273 29.9136C174.449 29.6946 174.58 29.442 174.664 29.1557C174.756 28.8693 174.803 28.5704 174.803 28.2588C174.803 27.9472 174.756 27.6525 174.664 27.3746C174.58 27.0883 174.449 26.8399 174.273 26.6294C174.104 26.4104 173.894 26.2378 173.641 26.1115C173.397 25.9767 173.11 25.9094 172.782 25.9094C172.454 25.9094 172.163 25.9767 171.91 26.1115C171.658 26.2378 171.443 26.4104 171.266 26.6294C171.098 26.8399 170.967 27.0883 170.875 27.3746C170.79 27.6525 170.748 27.9472 170.748 28.2588C170.748 28.5704 170.79 28.8693 170.875 29.1557C170.967 29.442 171.098 29.6946 171.266 29.9136C171.443 30.1241 171.658 30.2967 171.91 30.4315C172.163 30.5578 172.454 30.6209 172.782 30.6209ZM178.457 31.3157V26.0483H176.688V25.2146H181.185V26.0483H179.404V31.3157H178.457ZM183.249 25.2146V26.9325C183.249 27.2189 183.283 27.4546 183.35 27.6399C183.417 27.8252 183.514 27.9725 183.64 28.082C183.775 28.1915 183.94 28.2715 184.133 28.322C184.326 28.3641 184.55 28.3851 184.803 28.3851C185.122 28.3851 185.425 28.3557 185.712 28.2967C185.999 28.2294 186.234 28.1493 186.419 28.0567V25.2146H187.367V31.3157H186.419V28.8273C186.192 28.9451 185.914 29.042 185.586 29.1178C185.257 29.1936 184.916 29.2315 184.563 29.2315C183.763 29.2315 183.186 29.0714 182.832 28.7515C182.478 28.4315 182.301 27.922 182.301 27.223V25.2146H183.249ZM192.015 31.4673C191.56 31.4673 191.144 31.3915 190.765 31.2399C190.386 31.0799 190.057 30.8609 189.779 30.583C189.51 30.2967 189.295 29.9599 189.135 29.5725C188.984 29.1768 188.908 28.7388 188.908 28.2588C188.908 27.8209 188.984 27.4083 189.135 27.0209C189.287 26.6252 189.493 26.2841 189.754 25.9978C190.023 25.7114 190.339 25.4841 190.701 25.3157C191.072 25.1473 191.476 25.063 191.914 25.063C192.378 25.063 192.79 25.1473 193.152 25.3157C193.514 25.4841 193.821 25.7157 194.074 26.0104C194.327 26.3051 194.516 26.6546 194.643 27.0588C194.778 27.4546 194.845 27.8799 194.845 28.3346V28.5746H189.906C189.922 28.861 189.985 29.1346 190.095 29.3957C190.205 29.6483 190.352 29.8715 190.537 30.0651C190.731 30.2504 190.958 30.402 191.219 30.5199C191.481 30.6294 191.775 30.6841 192.104 30.6841C192.457 30.6841 192.798 30.6168 193.127 30.482C193.455 30.3472 193.742 30.1578 193.986 29.9136L194.44 30.5325C194.137 30.8357 193.784 31.0672 193.379 31.2273C192.975 31.3873 192.52 31.4673 192.015 31.4673ZM193.91 27.8799C193.91 27.6525 193.868 27.421 193.784 27.1851C193.708 26.941 193.585 26.722 193.417 26.5283C193.257 26.3262 193.051 26.162 192.798 26.0357C192.546 25.9094 192.246 25.8462 191.901 25.8462C191.573 25.8462 191.286 25.9094 191.043 26.0357C190.799 26.162 190.592 26.322 190.424 26.5157C190.263 26.7093 190.137 26.9283 190.045 27.1725C189.96 27.4083 189.914 27.6441 189.906 27.8799H193.91ZM197.491 31.3157V26.0483H195.723V25.2146H200.219V26.0483H198.438V31.3157H197.491Z" fill="#212121"/>
</svg>
