<svg width="87" height="87" viewBox="0 0 87 87" fill="none" xmlns="http://www.w3.org/2000/svg">
<circle cx="43.5" cy="43.5" r="43.5" fill="#D44333"/>
<path fill-rule="evenodd" clip-rule="evenodd" d="M44 26C34.6112 26 27 33.6112 27 43C27 52.3888 34.6112 60 44 60C53.3888 60 61 52.3888 61 43C61 33.6112 53.3888 26 44 26ZM52.0473 39.4564C52.6509 38.8529 52.6509 37.8744 52.0473 37.2708C51.4438 36.6673 50.4653 36.6673 49.8617 37.2708L41.6818 45.4508L38.1383 41.9072C37.5347 41.3037 36.5562 41.3037 35.9527 41.9072C35.3491 42.5107 35.3491 43.4893 35.9527 44.0928L40.589 48.7292C41.1926 49.3327 42.1711 49.3327 42.7746 48.7292L52.0473 39.4564Z" fill="white"/>
<path fill-rule="evenodd" clip-rule="evenodd" d="M44 26C34.6112 26 27 33.6112 27 43C27 52.3888 34.6112 60 44 60C53.3888 60 61 52.3888 61 43C61 33.6112 53.3888 26 44 26ZM52.0473 39.4564C52.6509 38.8529 52.6509 37.8744 52.0473 37.2708C51.4438 36.6673 50.4653 36.6673 49.8617 37.2708L41.6818 45.4508L38.1383 41.9072C37.5347 41.3037 36.5562 41.3037 35.9527 41.9072C35.3491 42.5107 35.3491 43.4893 35.9527 44.0928L40.589 48.7292C41.1926 49.3327 42.1711 49.3327 42.7746 48.7292L52.0473 39.4564Z" fill="white"/>
</svg>
