<svg width="51" height="51" viewBox="0 0 51 51" fill="none" xmlns="http://www.w3.org/2000/svg">
<path d="M50.2563 25.2886C50.2563 11.4992 39.0779 0.320801 25.2886 0.320801C11.4992 0.320801 0.320801 11.4992 0.320801 25.2886C0.320801 39.0779 11.4992 50.2563 25.2886 50.2563C39.0779 50.2563 50.2563 39.0779 50.2563 25.2886Z" fill="#D44333" stroke="#D44333" stroke-width="0.641579"/>
<path d="M15.686 18.5064C15.686 15.8873 17.8092 13.7642 20.4278 13.7642H30.1493C32.7689 13.7642 34.8922 15.8873 34.8922 18.5064V23.3672V28.228C34.8922 30.847 32.7689 32.9702 30.1493 32.9702H20.0753C17.6514 32.9702 15.686 31.0047 15.686 28.5802V18.5064Z" fill="white"/>
<path d="M18.6411 21.4597C18.6411 18.8407 20.7644 16.7175 23.383 16.7175H27.1951C29.8137 16.7175 31.937 18.8407 31.937 21.4597V23.6119H18.6411V21.4597Z" fill="#D44333"/>
<path d="M20.333 29.5736C20.9959 29.5736 21.5334 29.0362 21.5334 28.3732C21.5334 27.7103 20.9959 27.1729 20.333 27.1729C19.67 27.1729 19.1326 27.7103 19.1326 28.3732C19.1326 29.0362 19.67 29.5736 20.333 29.5736Z" fill="#D44333"/>
<path d="M29.7468 29.5736C30.4097 29.5736 30.9472 29.0362 30.9472 28.3732C30.9472 27.7103 30.4097 27.1729 29.7468 27.1729C29.0839 27.1729 28.5464 27.7103 28.5464 28.3732C28.5464 29.0362 29.0839 29.5736 29.7468 29.5736Z" fill="#D44333"/>
<path d="M19.528 31.8738L18.4304 34.8918" stroke="white" stroke-width="2.7742" stroke-linecap="round"/>
<path d="M31.0511 31.8738L32.1487 34.8918" stroke="white" stroke-width="2.7742" stroke-linecap="round"/>
</svg>
