<svg width="60" height="60" viewBox="0 0 60 60" fill="none" xmlns="http://www.w3.org/2000/svg">
<rect width="60" height="60" rx="10" fill="white"/>
<path fill-rule="evenodd" clip-rule="evenodd" d="M32.7525 17.0249C32.7729 17.0273 32.791 17.0293 32.8065 17.0309C35.1459 17.2656 37.3451 18.3005 39.0223 19.9777C40.6995 21.6549 41.7344 23.8541 41.9691 26.1935C41.9707 26.209 41.9727 26.2271 41.9751 26.2475C41.9986 26.4525 42.049 26.8922 41.8705 27.313C41.7237 27.6589 41.4494 27.9622 41.1198 28.1428C40.8692 28.2801 40.6282 28.3224 40.448 28.3391C40.2993 28.3528 40.133 28.3527 40.0003 28.3526C39.991 28.3526 39.982 28.3526 39.9731 28.3526L32.6945 28.3526C32.6859 28.3526 32.6771 28.3526 32.6682 28.3526C32.5328 28.3527 32.3709 28.3527 32.2284 28.3411C32.0632 28.3276 31.8267 28.293 31.5788 28.1667C31.2578 28.0031 30.9969 27.7422 30.8333 27.4212C30.707 27.1733 30.6724 26.9368 30.6589 26.7716C30.6473 26.6291 30.6473 26.4673 30.6474 26.3318C30.6474 26.3229 30.6474 26.3142 30.6474 26.3055V19.0269C30.6474 19.018 30.6474 19.009 30.6474 18.9997C30.6473 18.867 30.6472 18.7007 30.6609 18.552C30.6776 18.3718 30.7199 18.1308 30.8572 17.8802C31.0378 17.5506 31.341 17.2763 31.687 17.1295C32.1078 16.951 32.5475 17.0014 32.7525 17.0249ZM26.2676 21.5741C26.4727 21.5506 26.9124 21.5001 27.3332 21.6786C27.6791 21.8254 27.9824 22.0998 28.163 22.4293C28.3003 22.6799 28.3426 22.9209 28.3593 23.1011C28.373 23.2498 28.3729 23.4161 28.3728 23.5489C28.3728 23.5581 28.3728 23.5671 28.3728 23.576V30.6272H35.424C35.4329 30.6272 35.4419 30.6272 35.4511 30.6272C35.5839 30.6271 35.7502 30.627 35.8989 30.6407C36.0791 30.6574 36.3201 30.6997 36.5707 30.837C36.9002 31.0176 37.1746 31.3209 37.3214 31.6668C37.4999 32.0876 37.4494 32.5273 37.4259 32.7324C37.4236 32.7528 37.4215 32.7708 37.4199 32.7863C37.2531 34.4497 36.6806 36.0524 35.7461 37.451C34.6214 39.1342 33.0228 40.4462 31.1525 41.2209C29.2822 41.9956 27.2242 42.1983 25.2387 41.8033C23.2532 41.4084 21.4294 40.4335 19.9979 39.0021C18.5665 37.5706 17.5916 35.7468 17.1967 33.7613C16.8017 31.7758 17.0044 29.7178 17.7791 27.8475C18.5538 25.9772 19.8658 24.3786 21.549 23.2539C22.9476 22.3194 24.5503 21.7469 26.2137 21.5801C26.2292 21.5785 26.2472 21.5764 26.2676 21.5741Z" fill="#D44333"/>
</svg>
